<svg width="16" height="16" viewBox="0 0 16 16" fill="none" xmlns="http://www.w3.org/2000/svg">
<rect width="16" height="16" fill="white" fill-opacity="0.01"/>
<path fill-rule="evenodd" clip-rule="evenodd" d="M8.51115 2.65516C8.67312 2.72228 8.82029 2.82065 8.94423 2.94466L13.0562 7.05599C13.1803 7.17995 13.2788 7.32716 13.346 7.48919C13.4132 7.65123 13.4477 7.82492 13.4477 8.00033C13.4477 8.17574 13.4132 8.34943 13.346 8.51146C13.2788 8.6735 13.1803 8.8207 13.0562 8.94466L8.94423 13.056C8.82029 13.18 8.67312 13.2784 8.51115 13.3455C8.34917 13.4126 8.17556 13.4472 8.00023 13.4472C7.8249 13.4472 7.65129 13.4126 7.48931 13.3455C7.32734 13.2784 7.18018 13.18 7.05623 13.056L2.94423 8.94466C2.82012 8.8207 2.72166 8.6735 2.65449 8.51146C2.58731 8.34943 2.55273 8.17574 2.55273 8.00033C2.55273 7.82492 2.58731 7.65123 2.65449 7.48919C2.72166 7.32716 2.82012 7.17995 2.94423 7.05599L7.05623 2.94466C7.18018 2.82065 7.32734 2.72228 7.48931 2.65516C7.65129 2.58804 7.8249 2.5535 8.00023 2.5535C8.17556 2.5535 8.34917 2.58804 8.51115 2.65516ZM7.52882 9.13806C7.65385 9.26308 7.82342 9.33332 8.00023 9.33332C8.17704 9.33332 8.34661 9.26308 8.47163 9.13806C8.59666 9.01304 8.6669 8.84347 8.6669 8.66666V5.33332C8.6669 5.15651 8.59666 4.98694 8.47163 4.86192C8.34661 4.73689 8.17704 4.66666 8.00023 4.66666C7.82342 4.66666 7.65385 4.73689 7.52882 4.86192C7.4038 4.98694 7.33356 5.15651 7.33356 5.33332V8.66666C7.33356 8.84347 7.4038 9.01304 7.52882 9.13806ZM7.52882 11.1381C7.65385 11.2631 7.82342 11.3333 8.00023 11.3333C8.17704 11.3333 8.34661 11.2631 8.47163 11.1381C8.59666 11.013 8.6669 10.8435 8.6669 10.6667C8.6669 10.4898 8.59666 10.3203 8.47163 10.1953C8.34661 10.0702 8.17704 9.99999 8.00023 9.99999C7.82342 9.99999 7.65385 10.0702 7.52882 10.1953C7.4038 10.3203 7.33356 10.4898 7.33356 10.6667C7.33356 10.8435 7.4038 11.013 7.52882 11.1381Z" fill="#EB5757"/>
</svg>
