<svg width="36" height="36" viewBox="0 0 36 36" fill="none" xmlns="http://www.w3.org/2000/svg">
<g filter="url(#filter0_d)">
<circle cx="18" cy="17" r="12" fill="white"/>
</g>
<path fill-rule="evenodd" clip-rule="evenodd" d="M12.8417 8.69234H23.2671C23.9868 8.69234 24.5703 9.27578 24.5703 9.9955V24.0046C24.5703 24.7243 23.9868 25.3077 23.2671 25.3077H22.9413C22.2216 25.3077 21.6381 24.7243 21.6381 24.0046V23.0272H14.4707V24.0046C14.4707 24.7243 13.8873 25.3077 13.1675 25.3077H12.8417C12.122 25.3077 11.5386 24.7243 11.5386 24.0046V9.9955C11.5386 9.27578 12.122 8.69234 12.8417 8.69234Z" fill="white"/>
<path fill-rule="evenodd" clip-rule="evenodd" d="M12.5158 21.7239H23.5928C23.7727 21.7239 23.9185 21.8698 23.9185 22.0497V24.0044C23.9185 24.3643 23.6268 24.656 23.267 24.656H22.9412C22.5813 24.656 22.2896 24.3643 22.2896 24.0044V22.3755H13.819V24.0044C13.819 24.3643 13.5273 24.656 13.1674 24.656H12.8416C12.4818 24.656 12.19 24.3643 12.19 24.0044V22.0497C12.19 21.8698 12.3359 21.7239 12.5158 21.7239ZM13.1293 18.7922H22.9794C23.1438 18.7922 23.2823 18.9146 23.3027 19.0776L23.5471 21.0324C23.5694 21.2109 23.4427 21.3737 23.2642 21.396C23.2508 21.3977 23.2373 21.3986 23.2238 21.3986H12.885C12.705 21.3986 12.5592 21.2527 12.5592 21.0728C12.5592 21.0593 12.56 21.0458 12.5617 21.0324L12.806 19.0776C12.8264 18.9146 12.965 18.7922 13.1293 18.7922ZM13.4934 19.4436C13.3135 19.4436 13.1676 19.5894 13.1676 19.7693V20.0951C13.1676 20.2751 13.3135 20.4209 13.4934 20.4209H14.4708C14.6507 20.4209 14.7966 20.2751 14.7966 20.0951V19.7693C14.7966 19.5894 14.6507 19.4436 14.4708 19.4436H13.4934ZM21.6382 19.4436C21.4582 19.4436 21.3124 19.5894 21.3124 19.7693V20.0951C21.3124 20.2751 21.4582 20.4209 21.6382 20.4209H22.6156C22.7955 20.4209 22.9413 20.2751 22.9413 20.0951V19.7693C22.9413 19.5894 22.7955 19.4436 22.6156 19.4436H21.6382ZM16.7515 19.4436C16.6615 19.4436 16.5886 19.5165 16.5886 19.6065V19.9322C16.5886 20.0222 16.6615 20.0951 16.7515 20.0951C16.8414 20.0951 16.9143 20.0222 16.9143 19.9322V19.6065C16.9143 19.5165 16.8414 19.4436 16.7515 19.4436ZM17.403 19.4436C17.313 19.4436 17.2401 19.5165 17.2401 19.6065V20.5838C17.2401 20.6738 17.313 20.7467 17.403 20.7467C17.493 20.7467 17.5659 20.6738 17.5659 20.5838V19.6065C17.5659 19.5165 17.493 19.4436 17.403 19.4436ZM18.0543 19.4436C17.9644 19.4436 17.8914 19.5165 17.8914 19.6065V20.5838C17.8914 20.6738 17.9644 20.7467 18.0543 20.7467C18.1443 20.7467 18.2172 20.6738 18.2172 20.5838V19.6065C18.2172 19.5165 18.1443 19.4436 18.0543 19.4436ZM18.7059 19.4436C18.6159 19.4436 18.543 19.5165 18.543 19.6065V20.5838C18.543 20.6738 18.6159 20.7467 18.7059 20.7467C18.7959 20.7467 18.8688 20.6738 18.8688 20.5838V19.6065C18.8688 19.5165 18.7959 19.4436 18.7059 19.4436ZM19.3577 19.4436C19.2677 19.4436 19.1948 19.5165 19.1948 19.6065V19.9322C19.1948 20.0222 19.2677 20.0951 19.3577 20.0951C19.4477 20.0951 19.5206 20.0222 19.5206 19.9322V19.6065C19.5206 19.5165 19.4477 19.4436 19.3577 19.4436ZM23.2262 18.1401L22.6867 13.824C22.646 13.4979 22.3688 13.2533 22.0402 13.2533H14.0684C13.7398 13.2533 13.4626 13.4979 13.4219 13.824L12.8823 18.1401H12.5158C12.3359 18.1401 12.19 17.9943 12.19 17.8143V16.5112H12.5158C12.6958 16.5112 12.8416 16.3653 12.8416 16.1854V14.8822C12.8416 14.7023 12.6958 14.5564 12.5158 14.5564H12.19V9.99533C12.19 9.63547 12.4818 9.34375 12.8416 9.34375H23.267C23.6268 9.34375 23.9185 9.63547 23.9185 9.99533V14.5564H23.5928C23.4128 14.5564 23.267 14.7023 23.267 14.8822V16.1854C23.267 16.3653 23.4128 16.5112 23.5928 16.5112H23.9185V17.8143C23.9185 17.9943 23.7727 18.1401 23.5928 18.1401H23.2262ZM14.4705 10.647V12.6017H14.7963V10.647H14.4705ZM17.8914 10.647V12.6017H18.2172V10.647H17.8914ZM21.3124 10.647V12.6017H21.6382V10.647H21.3124ZM12.8416 9.66965C12.6617 9.66965 12.5158 9.81551 12.5158 9.99544H23.5927C23.5927 9.81551 23.4469 9.66965 23.267 9.66965H12.8416ZM23.7555 14.8824H24.0813C24.1713 14.8824 24.2442 14.9553 24.2442 15.0453V16.0227C24.2442 16.1126 24.1713 16.1856 24.0813 16.1856H23.7555C23.6655 16.1856 23.5926 16.1126 23.5926 16.0227V15.0453C23.5926 14.9553 23.6655 14.8824 23.7555 14.8824ZM12.0272 14.8824H12.3529C12.4429 14.8824 12.5158 14.9553 12.5158 15.0453V16.0227C12.5158 16.1126 12.4429 16.1856 12.3529 16.1856H12.0272C11.9372 16.1856 11.8643 16.1126 11.8643 16.0227V15.0453C11.8643 14.9553 11.9372 14.8824 12.0272 14.8824ZM14.1266 13.9049H21.9948C22.1622 13.9049 22.3023 14.0318 22.319 14.1983L22.5438 16.4464C22.5796 16.8045 22.3183 17.1238 21.9603 17.1596C21.9387 17.1618 21.9171 17.1628 21.8954 17.1628H14.2162C13.8564 17.1628 13.5646 16.8711 13.5646 16.5113C13.5646 16.4887 13.5658 16.4661 13.5682 16.4437L13.8025 14.1969C13.8198 14.031 13.9597 13.9049 14.1266 13.9049Z" fill="#666D80"/>
<circle cx="26.5" cy="8.5" r="4.5" fill="url(#paint0_linear)"/>
<defs>
<filter id="filter0_d" x="0" y="0" width="36" height="36" filterUnits="userSpaceOnUse" color-interpolation-filters="sRGB">
<feFlood flood-opacity="0" result="BackgroundImageFix"/>
<feColorMatrix in="SourceAlpha" type="matrix" values="0 0 0 0 0 0 0 0 0 0 0 0 0 0 0 0 0 0 127 0"/>
<feOffset dy="1"/>
<feGaussianBlur stdDeviation="3"/>
<feColorMatrix type="matrix" values="0 0 0 0 0 0 0 0 0 0 0 0 0 0 0 0 0 0 0.17 0"/>
<feBlend mode="normal" in2="BackgroundImageFix" result="effect1_dropShadow"/>
<feBlend mode="normal" in="SourceGraphic" in2="effect1_dropShadow" result="shape"/>
</filter>
<linearGradient id="paint0_linear" x1="22" y1="4" x2="22" y2="13" gradientUnits="userSpaceOnUse">
<stop stop-color="#3DC32F"/>
<stop offset="1" stop-color="#21AB19"/>
</linearGradient>
</defs>
</svg>

