<svg width="22" height="22" viewBox="0 0 22 22" fill="none" xmlns="http://www.w3.org/2000/svg">
<path fill-rule="evenodd" clip-rule="evenodd" d="M11 22C17.0751 22 22 17.0751 22 11C22 4.92487 17.0751 0 11 0C4.92487 0 0 4.92487 0 11C0 17.0751 4.92487 22 11 22Z" fill="url(#paint0_linear)"/>
<path fill-rule="evenodd" clip-rule="evenodd" d="M11 20C6.032 20 2 15.968 2 11C2 6.032 6.032 2 11 2C15.968 2 20 6.032 20 11C20 15.968 15.968 20 11 20Z" fill="white"/>
<path d="M11.0659 15.096C11.5459 15.096 11.9719 15.023 12.3439 14.877C12.7159 14.731 13.0309 14.531 13.2889 14.277C13.5469 14.023 13.7429 13.725 13.8769 13.383C14.0109 13.041 14.0779 12.674 14.0779 12.282C14.0779 11.922 14.0209 11.616 13.9069 11.364C13.7929 11.112 13.6419 10.899 13.4539 10.725C13.2659 10.551 13.0519 10.407 12.8119 10.293C12.5719 10.179 12.3269 10.079 12.0769 9.99303C11.8269 9.90703 11.5819 9.82603 11.3419 9.75003C11.1019 9.67403 10.8879 9.58803 10.6999 9.49203C10.5119 9.39603 10.3609 9.28003 10.2469 9.14403C10.1329 9.00803 10.0759 8.83803 10.0759 8.63403C10.0759 8.47403 10.1039 8.32703 10.1599 8.19303C10.2159 8.05903 10.3009 7.94403 10.4149 7.84803C10.5289 7.75203 10.6689 7.67703 10.8349 7.62303C11.0009 7.56903 11.1959 7.54203 11.4199 7.54203C11.6679 7.54203 11.8829 7.57303 12.0649 7.63503C12.2469 7.69703 12.4059 7.76603 12.5419 7.84203C12.6779 7.91803 12.7959 7.98703 12.8959 8.04903C12.9959 8.11103 13.0859 8.14203 13.1659 8.14203C13.2459 8.14203 13.3149 8.12403 13.3729 8.08803C13.4309 8.05203 13.4819 7.99003 13.5259 7.90203L13.9219 7.14003C13.6179 6.85203 13.2499 6.62803 12.8179 6.46803C12.3859 6.30803 11.9139 6.22803 11.4019 6.22803C10.9499 6.22803 10.5479 6.29803 10.1959 6.43803C9.84394 6.57803 9.54694 6.76403 9.30494 6.99603C9.06294 7.22803 8.87894 7.49403 8.75294 7.79403C8.62694 8.09403 8.56394 8.40203 8.56394 8.71803C8.56394 9.11403 8.62094 9.44703 8.73494 9.71703C8.84894 9.98703 8.99994 10.212 9.18794 10.392C9.37594 10.572 9.58994 10.718 9.82994 10.83C10.0699 10.942 10.3139 11.038 10.5619 11.118C10.8099 11.198 11.0539 11.272 11.2939 11.34C11.5339 11.408 11.7479 11.491 11.9359 11.589C12.1239 11.687 12.2749 11.808 12.3889 11.952C12.5029 12.096 12.5599 12.282 12.5599 12.51C12.5599 12.918 12.4339 13.231 12.1819 13.449C11.9299 13.667 11.5739 13.776 11.1139 13.776C10.8139 13.776 10.5569 13.735 10.3429 13.653C10.1289 13.571 9.94294 13.48 9.78494 13.38C9.62694 13.28 9.48994 13.189 9.37394 13.107C9.25794 13.025 9.14994 12.984 9.04994 12.984C8.97394 12.984 8.90494 13.003 8.84294 13.041C8.78094 13.079 8.72794 13.126 8.68394 13.182L8.21594 13.956C8.38394 14.128 8.57494 14.284 8.78894 14.424C9.00294 14.564 9.23294 14.684 9.47894 14.784C9.72494 14.884 9.98194 14.961 10.2499 15.015C10.5179 15.069 10.7899 15.096 11.0659 15.096Z" fill="#2AB320"/>
<defs>
<linearGradient id="paint0_linear" x1="0" y1="0" x2="0" y2="22" gradientUnits="userSpaceOnUse">
<stop stop-color="#3DC32F"/>
<stop offset="1" stop-color="#21AB19"/>
</linearGradient>
</defs>
</svg>

