<svg width="18" height="18" viewBox="0 0 18 18" fill="none" xmlns="http://www.w3.org/2000/svg">
<path fill-rule="evenodd" clip-rule="evenodd" d="M9 1.5C4.86 1.5 1.5 4.86 1.5 9C1.5 13.14 4.86 16.5 9 16.5C13.14 16.5 16.5 13.14 16.5 9C16.5 4.86 13.14 1.5 9 1.5Z" fill="white"/>
<path fill-rule="evenodd" clip-rule="evenodd" d="M6.96754 12.2177L4.27504 9.52517C3.98254 9.23267 3.98254 8.76017 4.27504 8.46767C4.56754 8.17517 5.04004 8.17517 5.33254 8.46767L7.50004 10.6277L12.66 5.46767C12.9525 5.17517 13.425 5.17517 13.7175 5.46767C14.01 5.76017 14.01 6.23267 13.7175 6.52517L8.02504 12.2177C7.74004 12.5102 7.26004 12.5102 6.96754 12.2177Z" fill="#27AE60"/>
</svg>
