<?xml version="1.0" encoding="UTF-8" standalone="no"?>
<svg width="28px" height="28px" viewBox="0 0 28 28" version="1.1" xmlns="http://www.w3.org/2000/svg" xmlns:xlink="http://www.w3.org/1999/xlink">
    <!-- Generator: Sketch 3.6.1 (26313) - http://www.bohemiancoding.com/sketch -->
    <title>Oval 271 + Path + Path</title>
    <desc>Created with Sketch.</desc>
    <defs></defs>
    <g id="Page-1" stroke="none" stroke-width="1" fill="none" fill-rule="evenodd">
        <g id="Desktop-HD-Copy-24" transform="translate(-1060.000000, -15.000000)">
            <g id="Group-11" transform="translate(1061.000000, 16.000000)">
                <g id="Oval-271-+-Path-+-Path">
                    <circle id="Oval-271" stroke="#FFFFFF" cx="13" cy="13" r="13"></circle>
                    <g id="Path-+-Path" transform="translate(3.513514, 4.216216)" fill="#FFFFFF">
                        <path d="M19.5083655,17.6159212 L19.5083655,17.0517588 C19.5083655,14.4964351 17.4337194,12.4389018 14.8571429,12.4389018 L4.65122265,12.4389018 C2.07464607,12.4389018 0,14.4964351 0,17.0517588 L0,17.6159212 C2.47619048,20.1048728 5.92277992,21.6646158 9.73745174,21.6646158 C13.5521236,21.6646158 16.998713,20.1048728 19.5083655,17.6159212 L19.5083655,17.6159212 Z" id="Path"></path>
                        <path d="M15.1824061,5.52840079 C15.324601,2.46651727 12.8504098,0 9.66524419,0 C6.48007857,0 4.00588742,2.46651727 4.14808231,5.52840079 C4.26183823,8.5902843 6.73602938,11.0568016 9.66524419,11.0568016 C12.594459,11.0568016 15.0686502,8.5902843 15.1824061,5.52840079 L15.1824061,5.52840079 Z" id="Path"></path>
                    </g>
                </g>
            </g>
        </g>
    </g>
</svg>
