<svg width="24" height="39" viewBox="0 0 24 39" fill="none" xmlns="http://www.w3.org/2000/svg">
<g filter="url(#filter0_d)">
<g filter="url(#filter1_d)">
<path fill-rule="evenodd" clip-rule="evenodd" d="M13.0718 2.6079L13.5737 0.998008C13.7696 1.02868 13.966 1.05753 14.1631 1.08438L14.1725 1.03958C14.0316 0.860338 13.8624 0.752796 13.6933 0.663177C13.6801 0.656174 13.6667 0.649555 13.6533 0.64327C13.6361 0.325781 13.411 0.0652343 13.0644 0.00896186C13.0174 0 12.9704 0 12.9235 0C12.534 0 12.1629 0.261803 12.0357 0.630402C12.0291 0.640326 12.0235 0.651315 12.0194 0.663177L11.5872 2.03434L11.5974 2.03957L11.4678 3.04613C11.1945 3.11049 10.9443 3.23115 10.7315 3.39444C10.2858 3.1398 9.74209 3.08929 9.25704 3.56683C8.72144 4.09558 7.49048 5.98653 7.49048 5.98653C7.48752 5.99062 7.4852 5.99491 7.48352 5.99942C7.35851 6.1977 6.88668 7.15933 6.5003 7.95748L5.55003 6.58161L5.38115 5.76575C5.70519 5.62704 5.93087 5.31661 5.93087 4.95591C5.93087 4.46591 5.51438 4.06869 5.00061 4.06869C4.48684 4.06869 4.07035 4.46591 4.07035 4.95591C4.07035 5.44591 4.48684 5.84314 5.00061 5.84314C5.04792 5.84314 5.09441 5.83977 5.13982 5.83327L5.31036 6.65712C5.31375 6.67351 5.3204 6.68905 5.32991 6.70282L6.37522 8.2163C6.25117 8.4734 6.14279 8.69922 6.06746 8.85647L6.0605 8.85432C6.0605 8.85432 6.05006 8.87079 6.03252 8.8996L5.51502 8.64031C5.26814 8.5166 4.96772 8.61646 4.84401 8.86335C4.72031 9.11023 4.82017 9.41065 5.06705 9.53436L5.663 9.83296C5.66388 9.83541 5.66483 9.8378 5.66585 9.84012C5.75981 10.0642 6.28602 10.333 6.60551 10.333C6.62255 10.333 6.6396 10.3322 6.65612 10.3306L6.896 10.4508C6.0816 10.3582 5.2119 10.3907 4.32685 10.6337L4.32683 10.6336L4.32208 10.6351C4.29505 10.6437 4.26449 10.6525 4.23286 10.6617C4.18231 10.6763 4.129 10.6918 4.08294 10.7082C4.01794 10.7315 3.98409 10.803 4.00734 10.868C4.03058 10.933 4.10213 10.9669 4.16713 10.9436C4.20973 10.9284 4.24622 10.918 4.28773 10.9062L4.28776 10.9062L4.28778 10.9061L4.2878 10.9061C4.3192 10.8972 4.35346 10.8874 4.39541 10.8741C5.48526 10.5754 6.55494 10.6079 7.52602 10.8029V11.041C7.52602 11.2966 7.71771 11.5073 7.96513 11.5373C7.23453 11.7744 6.75972 12.4537 6.81436 13.1919L7.34042 20.7267L7.32998 20.7288C7.32998 20.7288 6.83818 21.0174 6.84583 21.1868H6.38138C6.24331 21.1868 6.13138 21.2987 6.13138 21.4368C6.13138 21.5749 6.24331 21.6868 6.38138 21.6868H8.63854C8.99116 21.9689 9.43827 22.1462 9.92744 22.1691V23.0947C9.92744 23.2328 10.0394 23.3447 10.1774 23.3447H10.3462V23.8834C10.3462 23.9288 10.3508 23.9732 10.3595 24.0162V28.7228C10.3595 29.5512 11.0311 30.2228 11.8595 30.2228C12.6879 30.2228 13.3595 29.5512 13.3595 28.7228V23.9396C13.3611 23.921 13.3619 23.9023 13.3619 23.8834V23.3447H13.5417C13.6798 23.3447 13.7917 23.2328 13.7917 23.0947V22.1686C14.2805 22.1437 14.7259 21.967 15.0766 21.6868H17.3363C17.4744 21.6868 17.5863 21.5749 17.5863 21.4368C17.5863 21.2987 17.4744 21.1868 17.3363 21.1868H16.9926C17.0002 21.0174 16.5084 20.7288 16.5084 20.7288L16.5013 20.7274L17.0274 13.1919C17.082 12.4545 16.6083 11.776 15.8791 11.5382C16.13 11.5113 16.3253 11.299 16.3253 11.041V10.7751C17.2573 10.6055 18.2748 10.5902 19.3104 10.8741C19.3524 10.8874 19.3867 10.8972 19.418 10.9061L19.4181 10.9061L19.4181 10.9062C19.4596 10.918 19.4961 10.9284 19.5387 10.9436C19.6037 10.9669 19.6753 10.933 19.6985 10.868C19.7218 10.803 19.6879 10.7315 19.6229 10.7082C19.5768 10.6918 19.5235 10.6763 19.473 10.6617C19.4414 10.6525 19.4108 10.6437 19.3838 10.6351L19.3838 10.635L19.379 10.6337C18.4952 10.391 17.6266 10.3583 16.8132 10.4504L17.048 10.3327L17.0652 10.333C17.3766 10.333 17.8843 10.0777 17.9969 9.85729L18.6414 9.53436C18.8883 9.41065 18.9881 9.11023 18.8644 8.86335C18.7407 8.61646 18.4403 8.5166 18.1934 8.64031L17.6279 8.92369C17.5997 8.88016 17.582 8.85432 17.582 8.85432L17.5808 8.85474C17.5253 8.73419 17.449 8.56997 17.3603 8.38059L18.5191 6.70282C18.5286 6.68905 18.5353 6.67351 18.5387 6.65712L18.7092 5.83341C18.7543 5.83982 18.8004 5.84314 18.8474 5.84314C19.3611 5.84314 19.7776 5.44591 19.7776 4.95591C19.7776 4.46591 19.3611 4.06869 18.8474 4.06869C18.3336 4.06869 17.9171 4.46591 17.9171 4.95591C17.9171 5.31696 18.1432 5.62764 18.4678 5.76616L18.299 6.58161L17.2374 8.11867C16.8524 7.30054 16.3341 6.21843 16.199 6.00136C16.1974 5.99623 16.1949 5.99135 16.1916 5.98674L16.192 5.98653L16.1912 5.98568L16.1891 5.98299L16.1544 5.92994L16.1423 5.9111L16.1423 5.91107L16.1423 5.91095L16.1422 5.91092C16.1056 5.85335 16.0496 5.76539 15.9759 5.65494L15.973 5.65638C15.5948 5.09018 14.8203 3.95721 14.4248 3.56682C13.975 3.12398 13.4748 3.13525 13.049 3.3423C12.888 3.23037 12.7081 3.14181 12.5148 3.08191C12.5164 3.07333 12.5178 3.06469 12.519 3.05599L12.5852 2.54153L12.8745 2.68856C12.8933 2.69752 12.9215 2.70648 12.9403 2.70648C12.9966 2.70648 13.053 2.67063 13.0718 2.6079ZM7.08726 9.42809L7.27826 9.52379L7.11438 9.28652C7.10733 9.32544 7.09823 9.37377 7.08726 9.42809ZM16.6732 9.37552L16.6451 9.41608L16.6752 9.40104L16.6732 9.37552ZM7.26247 9.06102L7.62835 9.59077C7.71971 9.47111 7.86384 9.3939 8.02602 9.3939C8.29979 9.3939 8.52217 9.61393 8.52597 9.8868H10.0181V6.38846L9.46377 6.95441C9.46129 6.95689 9.4585 6.95919 9.45541 6.96129C9.24487 7.16846 7.89622 8.45623 7.26247 9.06102ZM14.2248 6.96008C14.443 7.17497 15.9415 8.60549 16.52 9.15743L16.2218 9.58917C16.1304 9.47042 15.9868 9.3939 15.8253 9.3939C15.5516 9.3939 15.3292 9.61393 15.3254 9.8868H13.8425V6.57095L14.2181 6.95441C14.2201 6.95642 14.2223 6.95831 14.2248 6.96008ZM10.9611 17.1526C11.2115 16.965 11.5225 16.8539 11.8595 16.8539C12.1966 16.8539 12.5076 16.9651 12.7581 17.1527C12.8566 17.1917 12.9517 17.2368 13.0428 17.2877V16.1134H10.6788V17.2861C10.7693 17.2358 10.8635 17.1912 10.9611 17.1526ZM9.67885 16.0842C9.3688 16.0269 9.08482 15.8881 8.85496 15.6899L8.7205 16.7324C8.99621 16.5329 9.32309 16.3945 9.67885 16.3384V16.0842ZM14.0428 16.3406V16.0841C14.4033 16.0179 14.7284 15.8428 14.9739 15.5901L15.1364 16.8502C14.8361 16.5902 14.4596 16.4089 14.0428 16.3406ZM15.3253 11.041C15.3253 11.2007 15.4002 11.3429 15.5167 11.4344L15.1623 11.3344C14.9254 11.1862 14.6458 11.0918 14.3399 11.0719C14.3116 11.0088 14.2807 10.9471 14.2473 10.8868H15.3253V11.041ZM8.33993 11.4302L8.4592 11.3966C8.71662 11.211 9.03221 11.0922 9.38024 11.0712C9.40852 11.0084 9.43934 10.9469 9.4726 10.8868H8.52602V11.041C8.52602 11.1983 8.45343 11.3386 8.33993 11.4302ZM15.5304 21.1868H15.5937L15.6437 20.988C15.6097 21.0564 15.5718 21.1228 15.5304 21.1868Z" fill="white"/>
</g>
</g>
<path d="M16.0896 20.5216C16.0896 20.5216 16.6382 20.8592 16.5031 21.0027C16.4187 21.0871 15.254 21.0111 15.254 21.0111L15.4059 20.3781L16.0896 20.5216Z" fill="#1A0440"/>
<path d="M15.4069 20.4118L14.6895 14.5798H14.1409V11.5583L15.4322 11.9381C16.0821 12.1323 16.5041 12.7315 16.4534 13.4067L15.9892 20.4034H15.4069V20.4118Z" fill="white"/>
<path fill-rule="evenodd" clip-rule="evenodd" d="M14.0308 14.6896V11.4233L15.4571 11.8453C16.1492 12.0479 16.6049 12.7062 16.5543 13.4236L16.0817 20.5216H15.3052L14.5878 14.6896H14.0308ZM15.3979 12.0479L14.2417 11.7019V14.4702H14.5877H14.7734L14.7987 14.6558L15.4992 20.3021H15.8874L16.3432 13.4067C16.3854 12.7822 15.9972 12.2251 15.3979 12.0479Z" fill="#1A0440"/>
<path d="M7.84364 20.5216C7.84364 20.5216 7.29504 20.8592 7.43008 21.0027C7.51448 21.0871 8.67919 21.0111 8.67919 21.0111L8.52727 20.3781L7.84364 20.5216Z" fill="#1A0440"/>
<path d="M7.94549 20.4119L7.48129 13.4152C7.43909 12.74 7.86109 12.1323 8.50253 11.9466L9.79384 11.5668V14.5883H9.24524L8.52785 20.4203H7.94549V20.4119Z" fill="white"/>
<path fill-rule="evenodd" clip-rule="evenodd" d="M8.47786 11.8453L9.90421 11.4233V14.6896H9.34717L8.62977 20.5216H7.8533L7.38066 13.4236C7.33002 12.7062 7.78578 12.0479 8.47786 11.8453ZM9.69323 14.4786V11.7019L8.53696 12.0563C7.93772 12.2336 7.54949 12.7906 7.59168 13.4152L8.04744 20.3106H8.43568L9.13619 14.6643L9.16151 14.4786H9.34719H9.69323Z" fill="#1A0440"/>
<path d="M12.5037 24.0495V21.1968H12.605C12.9088 21.1968 13.162 21.4415 13.162 21.7454V23.4924C13.162 23.7963 12.9173 24.041 12.605 24.041H12.5037V24.0495Z" fill="white"/>
<path fill-rule="evenodd" clip-rule="evenodd" d="M12.394 21.087H12.605C12.968 21.087 13.2634 21.3824 13.2634 21.7454V23.4924C13.2634 23.8553 12.968 24.1507 12.605 24.1507H12.394V23.9397V21.298V21.087ZM13.0523 21.7454C13.0523 21.5006 12.8498 21.298 12.605 21.298V23.9397C12.8498 23.9397 13.0523 23.7372 13.0523 23.4924V21.7454Z" fill="#1A0440"/>
<path d="M11.2118 24.0495C10.908 24.0495 10.6632 23.8047 10.6632 23.5009V21.7538C10.6632 21.45 10.908 21.2052 11.2118 21.2052H11.3131V24.0579H11.2118V24.0495Z" fill="white"/>
<path fill-rule="evenodd" clip-rule="evenodd" d="M11.2117 21.087H11.4227V21.298V23.9397V24.1507H11.2117C10.8487 24.1507 10.5533 23.8553 10.5533 23.4924V21.7454C10.5533 21.3824 10.8487 21.087 11.2117 21.087ZM11.2118 23.9397V21.298C10.967 21.298 10.7645 21.5006 10.7645 21.7454V23.4924C10.7645 23.7372 10.967 23.9397 11.2118 23.9397Z" fill="#1A0440"/>
<path d="M14.646 21.1884H16.8319" stroke="#1A0440" stroke-width="0.5" stroke-linecap="round" stroke-linejoin="round"/>
<path d="M9.17801 21.1884H6.99207" stroke="#1A0440" stroke-width="0.5" stroke-linecap="round" stroke-linejoin="round"/>
<path d="M9.57343 4.35908C9.09236 4.85703 7.98673 6.63786 7.98673 6.63786C7.83481 6.8573 9.59031 7.72661 9.75911 7.54937L11.675 5.49847C11.9704 5.06803 10.62 3.27877 9.57343 4.35908Z" fill="#1A0440"/>
<path d="M6.75342 9.49899C7.09946 8.74783 7.82529 7.16957 8.03629 6.77289L9.58924 7.57468C9.17568 7.98824 7.73245 9.43991 7.46237 9.70999L6.75342 9.49899Z" fill="white"/>
<path fill-rule="evenodd" clip-rule="evenodd" d="M6.61047 9.55805C6.61047 9.55805 7.8427 6.84883 7.99462 6.62939L9.76701 7.54091C9.59821 7.71815 7.48823 9.82813 7.48823 9.82813L6.61047 9.55805ZM9.4117 7.60843L8.07819 6.91635C7.85031 7.35523 7.30171 8.5537 6.8966 9.4399L7.42831 9.60025C7.75746 9.26266 8.93058 8.08955 9.41167 7.60846L9.4117 7.60843Z" fill="#1A0440"/>
<path d="M8.19694 6.30872C8.07034 6.50283 7.99438 6.62943 7.99438 6.62943L9.76677 7.54095L10.0031 7.28775L8.19694 6.30872Z" fill="white"/>
<path d="M14.2161 4.35908C14.6972 4.85703 15.8028 6.63786 15.8028 6.63786C15.9547 6.8573 14.1992 7.72661 14.0304 7.54937L12.1145 5.49847C11.8191 5.06803 13.1695 3.27877 14.2161 4.35908Z" fill="#1A0440"/>
<path d="M16.3339 9.70999C16.0554 9.43147 14.6121 7.98824 14.207 7.57468L15.76 6.77289C15.9541 7.13581 16.5702 8.50308 17.0007 9.48211L16.3339 9.70999Z" fill="white"/>
<path fill-rule="evenodd" clip-rule="evenodd" d="M14.0222 7.54091L15.7946 6.62939C15.9465 6.84883 17.145 9.54117 17.1366 9.54117L16.301 9.82813C16.301 9.82813 14.191 7.71815 14.0222 7.54091ZM16.8584 9.42302C16.4701 8.54526 15.93 7.35523 15.7105 6.91635L14.377 7.60843L16.3604 9.59182L16.8584 9.42302Z" fill="#1A0440"/>
<path d="M15.6094 6.32556L13.7948 7.29615L14.0311 7.54935L15.8035 6.63784C15.7951 6.6294 15.7275 6.51124 15.6094 6.32556Z" fill="white"/>
<path d="M11.9714 3.81897C11.0261 3.81897 10.2581 4.587 10.2581 5.53228V11.7863H13.6931V5.53228C13.6847 4.587 12.9166 3.81897 11.9714 3.81897Z" fill="#1A0440"/>
<path d="M11.9737 4.24936C11.8808 4.24936 11.7964 4.2156 11.7373 4.14809C11.6783 4.08057 11.6529 3.98773 11.6614 3.89489L11.7795 2.92429L11.8808 2.60358H12.556L12.4041 3.86113C12.3703 4.08057 12.1762 4.24936 11.9737 4.24936Z" fill="white"/>
<path fill-rule="evenodd" clip-rule="evenodd" d="M11.8038 2.50232H12.6731L12.5043 3.87803C12.4705 4.13967 12.2342 4.35067 11.9726 4.35067C11.7109 4.35067 11.5253 4.13967 11.559 3.87803L11.6772 2.91588L11.8038 2.50232ZM12.2859 3.85271L12.4293 2.71332H11.9483L11.8639 2.97496L11.7541 3.90335C11.7457 3.97087 11.7626 4.02995 11.8048 4.07215C11.847 4.11435 11.8976 4.13967 11.9651 4.13967C12.1171 4.13967 12.269 4.00463 12.2859 3.85271Z" fill="#1A0440"/>
<path d="M11.7937 2.86524L12.1566 1.65833L13.372 1.86932L12.9078 3.43071L12.8909 3.44759L11.7937 2.86524Z" fill="white"/>
<path fill-rule="evenodd" clip-rule="evenodd" d="M12.0563 1.62456C12.0732 1.57392 12.1154 1.54016 12.166 1.54016C12.1703 1.54016 12.1745 1.54227 12.1766 1.54333C12.1787 1.54438 12.1787 1.54438 12.1745 1.54016L13.3814 1.7596C13.4489 1.76804 13.4827 1.83556 13.4658 1.89464L13.0016 3.45603C12.9847 3.51511 12.9341 3.54887 12.8834 3.54887C12.8666 3.54887 12.8412 3.54043 12.8244 3.53199L11.6681 2.91587L12.0563 1.62456ZM13.2379 1.95372L12.2336 1.76804L11.9213 2.81459L12.8328 3.30411L13.2379 1.95372Z" fill="#1A0440"/>
<path d="M12.192 1.57393C12.3186 1.27854 12.5887 1.1013 12.8672 1.1013C12.901 1.1013 12.9432 1.1013 12.9769 1.10974C13.1288 1.13506 13.2554 1.21946 13.3398 1.34606C13.4158 1.47265 13.4411 1.62457 13.3989 1.78493L12.192 1.57393Z" fill="white"/>
<path fill-rule="evenodd" clip-rule="evenodd" d="M12.0658 1.60768C12.1755 1.2532 12.5131 1 12.8676 1C12.9098 1 12.952 1 12.9942 1.00844C13.3909 1.07596 13.6103 1.45576 13.4922 1.86087L13.4753 1.91151L12.049 1.65832L12.0658 1.60768ZM12.9603 1.21944C12.9265 1.211 12.9012 1.211 12.8675 1.211C12.6649 1.211 12.4623 1.32916 12.3526 1.5064L13.3148 1.67519C13.3148 1.58236 13.2979 1.48952 13.2473 1.41356C13.1882 1.31228 13.0869 1.24476 12.9603 1.21944Z" fill="#1A0440"/>
<path d="M12.0574 1.63298C12.2431 1.51482 12.4203 1.47262 12.5891 1.4473C12.7579 1.42198 12.9183 1.45574 13.0871 1.45574C13.239 1.51482 13.4078 1.54014 13.5597 1.62454C13.7116 1.70894 13.8635 1.81022 13.9901 1.97902L13.9817 2.02122C13.3318 1.92838 12.6904 1.81022 12.049 1.67518L12.0574 1.63298Z" fill="#1A0440"/>
<path d="M11.8875 2.19848L12.0479 1.65833L12.2926 1.70053L11.8875 2.19848Z" fill="#00103D"/>
<path d="M10.2747 21.8804V16.3607C9.1944 16.3607 8.31665 17.2385 8.31665 18.3188V19.9139C8.31665 21.0027 9.1944 21.8804 10.2747 21.8804Z" fill="#1A0440"/>
<path d="M13.5413 21.8804V16.3607C14.6216 16.3607 15.4993 17.2385 15.4993 18.3188V19.9139C15.5078 21.0027 14.63 21.8804 13.5413 21.8804Z" fill="#1A0440"/>
<path d="M10.2414 16.0568C9.59994 16.0568 9.02602 15.618 8.85722 15.0019L8.40147 13.3392C8.28331 12.9003 8.37615 12.4446 8.64623 12.0901C8.9163 11.7356 9.3383 11.5246 9.78562 11.5246H14.0309C14.4782 11.5246 14.9002 11.7272 15.1703 12.0901C15.4404 12.453 15.5332 12.9003 15.4151 13.3392L14.9593 15.0019C14.7905 15.6264 14.2166 16.0568 13.5752 16.0568H10.2414Z" fill="white"/>
<path fill-rule="evenodd" clip-rule="evenodd" d="M9.78549 11.4233H14.0308C15.052 11.4233 15.7863 12.3855 15.5246 13.373L15.0689 15.0356C14.8832 15.7108 14.2755 16.175 13.5835 16.175H10.2412C9.54917 16.175 8.9415 15.7024 8.75582 15.0356L8.30006 13.373C8.02998 12.3855 8.7727 11.4233 9.78549 11.4233ZM15.0862 12.1576C14.833 11.8285 14.4532 11.6343 14.0312 11.6343H9.77752C9.36396 11.6343 8.97573 11.8285 8.72253 12.1576C8.46933 12.4868 8.38493 12.9088 8.49465 13.3139L8.95041 14.9766C9.11077 15.5505 9.63404 15.9556 10.2333 15.9556H13.5755C14.1747 15.9556 14.698 15.5505 14.8584 14.9766L15.3141 13.3139C15.4238 12.9088 15.3394 12.4868 15.0862 12.1576Z" fill="#1A0440"/>
<path d="M15.4749 10.7819H8.34314" stroke="#1A0440" stroke-linecap="round" stroke-linejoin="round"/>
<path d="M8.34273 10.7819L6.01331 9.55811" stroke="#1A0440" stroke-linecap="round" stroke-linejoin="round"/>
<path d="M8.34204 11.1279C7.37989 10.8832 6.29113 10.8072 5.17706 11.1279C5.1011 11.1532 5.03358 11.1701 4.96606 11.1954" stroke="#1A0440" stroke-width="0.25" stroke-linecap="round" stroke-linejoin="round"/>
<path d="M15.4738 10.7819L17.8032 9.55811" stroke="#1A0440" stroke-linecap="round" stroke-linejoin="round"/>
<path d="M15.4729 11.1279C16.4351 10.8832 17.5238 10.8072 18.6379 11.1279C18.7138 11.1532 18.7814 11.1701 18.8489 11.1954" stroke="#1A0440" stroke-width="0.25" stroke-linecap="round" stroke-linejoin="round"/>
<path d="M8.46899 11.398V10.3177" stroke="#1A0440" stroke-linecap="round" stroke-linejoin="round"/>
<path d="M15.4746 11.398V10.3177" stroke="#1A0440" stroke-linecap="round" stroke-linejoin="round"/>
<path d="M11.9119 18.285V28.05" stroke="#1A0440" stroke-width="2" stroke-linecap="round" stroke-linejoin="round"/>
<path d="M13.4231 13.2717V18.285" stroke="#1A0440" stroke-linecap="round" stroke-linejoin="round"/>
<path d="M10.4022 13.2717V18.285" stroke="#1A0440" stroke-linecap="round" stroke-linejoin="round"/>
<path d="M13.077 22.7497H13.423V18.285" stroke="#1A0440" stroke-width="0.5" stroke-linecap="round" stroke-linejoin="round"/>
<path d="M10.402 18.285V22.7497H10.7396" stroke="#1A0440" stroke-width="0.5" stroke-linecap="round" stroke-linejoin="round"/>
<path d="M11.9126 14.5883C13.1338 14.5883 14.1238 13.5983 14.1238 12.377C14.1238 11.1558 13.1338 10.1658 11.9126 10.1658C10.6913 10.1658 9.70129 11.1558 9.70129 12.377C9.70129 13.5983 10.6913 14.5883 11.9126 14.5883Z" fill="white"/>
<path fill-rule="evenodd" clip-rule="evenodd" d="M9.49048 12.377C9.49048 11.0435 10.5792 9.95477 11.9127 9.95477C13.2463 9.95477 14.335 11.0435 14.335 12.377C14.335 13.7105 13.2463 14.7993 11.9127 14.7993C10.5792 14.7993 9.49048 13.7105 9.49048 12.377ZM13.9127 12.377C13.9127 11.2714 13.0181 10.3768 11.9125 10.3768C10.8068 10.3768 9.9122 11.2714 9.9122 12.377C9.9122 13.4827 10.8068 14.3773 11.9125 14.3773C13.0181 14.3773 13.9127 13.4827 13.9127 12.377Z" fill="#1A0440"/>
<path d="M10.0208 18.8927C10.122 17.9474 10.9323 17.2047 11.9113 17.2047C12.8903 17.2047 13.6921 17.9474 13.8018 18.8927H10.0208Z" fill="white"/>
<path fill-rule="evenodd" clip-rule="evenodd" d="M9.80225 19.1037C9.80225 17.939 10.7475 16.9937 11.9122 16.9937C13.0769 16.9937 14.0222 17.939 14.0222 19.1037H9.80225ZM13.5492 18.6817C13.3636 17.9559 12.6968 17.4157 11.9119 17.4157C11.127 17.4157 10.4602 17.9559 10.2745 18.6817H13.5492Z" fill="#1A0440"/>
<path d="M18.1901 5.27905L17.8018 7.24556L15.4724 10.7819" stroke="#1A0440" stroke-width="0.25" stroke-linecap="round" stroke-linejoin="round"/>
<path d="M18.19 6.50283C18.6515 6.50283 19.0256 6.12874 19.0256 5.66728C19.0256 5.20582 18.6515 4.83173 18.19 4.83173C17.7286 4.83173 17.3545 5.20582 17.3545 5.66728C17.3545 6.12874 17.7286 6.50283 18.19 6.50283Z" fill="#1A0440"/>
<path d="M5.75183 5.27905L6.14007 7.24556L8.46949 10.7819" stroke="#1A0440" stroke-width="0.25" stroke-linecap="round" stroke-linejoin="round"/>
<path d="M5.75108 6.50283C6.21255 6.50283 6.58664 6.12874 6.58664 5.66728C6.58664 5.20582 6.21255 4.83173 5.75108 4.83173C5.28962 4.83173 4.91553 5.20582 4.91553 5.66728C4.91553 6.12874 5.28962 6.50283 5.75108 6.50283Z" fill="#1A0440"/>
<path d="M16.5953 10.63C16.5446 10.63 16.5193 10.6215 16.5024 10.6131C16.4349 10.5625 16.3505 10.1489 16.3336 9.71003L17.0088 9.46527C17.2198 9.80287 17.3717 10.1489 17.338 10.2249C17.2789 10.3852 16.8569 10.63 16.5953 10.63Z" fill="white"/>
<path fill-rule="evenodd" clip-rule="evenodd" d="M16.2255 9.64252L17.0526 9.33868C17.0526 9.33868 17.5252 10.0645 17.4324 10.2671C17.348 10.4781 16.8753 10.7313 16.5884 10.7313C16.5377 10.7313 16.4871 10.7228 16.4533 10.706C16.2592 10.6047 16.2255 9.64252 16.2255 9.64252ZM17.2455 10.1827C17.2455 10.1236 17.1274 9.86196 16.967 9.59188L16.4522 9.786C16.4775 10.132 16.5366 10.4696 16.5872 10.5372C16.8235 10.5203 17.2033 10.2924 17.2455 10.1827Z" fill="#1A0440"/>
<path d="M7.19406 10.63C6.93243 10.63 6.51043 10.3852 6.45135 10.2249C6.41759 10.1489 6.56107 9.80287 6.75519 9.46527L7.54854 9.71847C7.48102 10.1573 7.35442 10.5625 7.27846 10.6131C7.27002 10.6215 7.2447 10.63 7.19406 10.63Z" fill="white"/>
<path fill-rule="evenodd" clip-rule="evenodd" d="M6.34977 10.2671C6.26537 10.0645 6.70425 9.33868 6.70425 9.33868L7.6664 9.65096C7.6664 9.65096 7.52292 10.6047 7.3288 10.706C7.29504 10.7228 7.2444 10.7313 7.19376 10.7313C6.90681 10.7313 6.43417 10.4781 6.34977 10.2671ZM7.43059 9.79444L6.80603 9.59188C6.66255 9.86196 6.54439 10.1236 6.55283 10.2164C6.58659 10.3008 6.96639 10.5287 7.19427 10.5287C7.27023 10.4696 7.36307 10.1489 7.43059 9.79444Z" fill="#1A0440"/>
<defs>
<filter id="filter0_d" x="0" y="0" width="23.7776" height="38.2228" filterUnits="userSpaceOnUse" color-interpolation-filters="sRGB">
<feFlood flood-opacity="0" result="BackgroundImageFix"/>
<feColorMatrix in="SourceAlpha" type="matrix" values="0 0 0 0 0 0 0 0 0 0 0 0 0 0 0 0 0 0 127 0"/>
<feOffset dy="4"/>
<feGaussianBlur stdDeviation="2"/>
<feColorMatrix type="matrix" values="0 0 0 0 0 0 0 0 0 0 0 0 0 0 0 0 0 0 0.15 0"/>
<feBlend mode="normal" in2="BackgroundImageFix" result="effect1_dropShadow"/>
<feBlend mode="normal" in="SourceGraphic" in2="effect1_dropShadow" result="shape"/>
</filter>
<filter id="filter1_d" x="2.5" y="0" width="18.7776" height="33.2228" filterUnits="userSpaceOnUse" color-interpolation-filters="sRGB">
<feFlood flood-opacity="0" result="BackgroundImageFix"/>
<feColorMatrix in="SourceAlpha" type="matrix" values="0 0 0 0 0 0 0 0 0 0 0 0 0 0 0 0 0 0 127 0"/>
<feOffset dy="1.5"/>
<feGaussianBlur stdDeviation="0.75"/>
<feColorMatrix type="matrix" values="0 0 0 0 0 0 0 0 0 0 0 0 0 0 0 0 0 0 0.2 0"/>
<feBlend mode="normal" in2="BackgroundImageFix" result="effect1_dropShadow"/>
<feBlend mode="normal" in="SourceGraphic" in2="effect1_dropShadow" result="shape"/>
</filter>
</defs>
</svg>
