<svg width="25" height="41" viewBox="0 0 25 41" fill="none" xmlns="http://www.w3.org/2000/svg">
<g filter="url(#filter0_d)">
<path fill-rule="evenodd" clip-rule="evenodd" d="M4.03922 1H20.3529C21.4792 1 22.3922 1.91299 22.3922 3.03922V24.9608C22.3922 26.087 21.4792 27 20.3529 27H19.8431C18.7169 27 17.8039 26.087 17.8039 24.9608V23.4314H6.58824V24.9608C6.58824 26.087 5.67525 27 4.54902 27H4.03922C2.91299 27 2 26.087 2 24.9608V3.03922C2 1.91299 2.91299 1 4.03922 1Z" fill="white"/>
</g>
<path fill-rule="evenodd" clip-rule="evenodd" d="M3.52944 21.3922H20.8628C21.1443 21.3922 21.3726 21.6204 21.3726 21.902V24.9608C21.3726 25.5239 20.9161 25.9804 20.353 25.9804H19.8432C19.2801 25.9804 18.8236 25.5239 18.8236 24.9608V22.4118H5.56866V24.9608C5.56866 25.5239 5.11217 25.9804 4.54905 25.9804H4.03925C3.47613 25.9804 3.01964 25.5239 3.01964 24.9608V21.902C3.01964 21.6204 3.24789 21.3922 3.52944 21.3922ZM4.48937 16.804H19.903C20.1601 16.804 20.377 16.9954 20.4089 17.2506L20.7912 20.3094C20.8262 20.5888 20.628 20.8436 20.3486 20.8785C20.3276 20.8811 20.3065 20.8824 20.2854 20.8824H4.10702C3.82546 20.8824 3.59722 20.6542 3.59722 20.3726C3.59722 20.3515 3.59853 20.3304 3.60115 20.3094L3.98351 17.2506C4.0154 16.9954 4.23227 16.804 4.48937 16.804ZM5.05894 17.8235C4.77738 17.8235 4.54913 18.0517 4.54913 18.3333V18.8431C4.54913 19.1247 4.77738 19.3529 5.05894 19.3529H6.58835C6.8699 19.3529 7.09815 19.1247 7.09815 18.8431V18.3333C7.09815 18.0517 6.8699 17.8235 6.58835 17.8235H5.05894ZM17.8039 17.8235C17.5224 17.8235 17.2941 18.0517 17.2941 18.3333V18.8431C17.2941 19.1247 17.5224 19.3529 17.8039 19.3529H19.3333C19.6149 19.3529 19.8431 19.1247 19.8431 18.8431V18.3333C19.8431 18.0517 19.6149 17.8235 19.3333 17.8235H17.8039ZM10.1569 17.8235C10.0162 17.8235 9.90203 17.9376 9.90203 18.0784V18.5882C9.90203 18.729 10.0162 18.8431 10.1569 18.8431C10.2977 18.8431 10.4118 18.729 10.4118 18.5882V18.0784C10.4118 17.9376 10.2977 17.8235 10.1569 17.8235ZM11.1765 17.8235C11.0357 17.8235 10.9216 17.9376 10.9216 18.0784V19.6078C10.9216 19.7486 11.0357 19.8627 11.1765 19.8627C11.3173 19.8627 11.4314 19.7486 11.4314 19.6078V18.0784C11.4314 17.9376 11.3173 17.8235 11.1765 17.8235ZM12.1962 17.8235C12.0554 17.8235 11.9413 17.9376 11.9413 18.0784V19.6078C11.9413 19.7486 12.0554 19.8627 12.1962 19.8627C12.337 19.8627 12.4511 19.7486 12.4511 19.6078V18.0784C12.4511 17.9376 12.337 17.8235 12.1962 17.8235ZM13.2157 17.8235C13.075 17.8235 12.9608 17.9376 12.9608 18.0784V19.6078C12.9608 19.7486 13.075 19.8627 13.2157 19.8627C13.3565 19.8627 13.4706 19.7486 13.4706 19.6078V18.0784C13.4706 17.9376 13.3565 17.8235 13.2157 17.8235ZM14.2353 17.8235C14.0945 17.8235 13.9804 17.9376 13.9804 18.0784V18.5882C13.9804 18.729 14.0945 18.8431 14.2353 18.8431C14.3761 18.8431 14.4902 18.729 14.4902 18.5882V18.0784C14.4902 17.9376 14.3761 17.8235 14.2353 17.8235ZM20.2892 15.7844L19.445 9.0305C19.3812 8.52026 18.9475 8.13736 18.4333 8.13736H5.95895C5.44473 8.13736 5.01099 8.52026 4.94721 9.0305L4.10297 15.7844H3.52944C3.24789 15.7844 3.01964 15.5562 3.01964 15.2746V13.2354H3.52944C3.811 13.2354 4.03925 13.0072 4.03925 12.7256V10.6864C4.03925 10.4048 3.811 10.1766 3.52944 10.1766H3.01964V3.03932C3.01964 2.47621 3.47613 2.01971 4.03925 2.01971H20.353C20.9161 2.01971 21.3726 2.47621 21.3726 3.03932V10.1766H20.8628C20.5812 10.1766 20.353 10.4048 20.353 10.6864V12.7256C20.353 13.0072 20.5812 13.2354 20.8628 13.2354H21.3726V15.2746C21.3726 15.5562 21.1443 15.7844 20.8628 15.7844H20.2892ZM6.58832 4.05872V7.11755H7.09812V4.05872H6.58832ZM11.9413 4.05872V7.11755H12.4511V4.05872H11.9413ZM17.2941 4.05872V7.11755H17.8039V4.05872H17.2941ZM4.0392 2.52941C3.75764 2.52941 3.52939 2.75765 3.52939 3.03921H20.8627C20.8627 2.75765 20.6345 2.52941 20.3529 2.52941H4.0392ZM21.1177 10.6863H21.6276C21.7683 10.6863 21.8825 10.8004 21.8825 10.9412V12.4706C21.8825 12.6114 21.7683 12.7255 21.6276 12.7255H21.1177C20.977 12.7255 20.8628 12.6114 20.8628 12.4706V10.9412C20.8628 10.8004 20.977 10.6863 21.1177 10.6863ZM2.76479 10.6863H3.27459C3.41537 10.6863 3.5295 10.8004 3.5295 10.9412V12.4706C3.5295 12.6114 3.41537 12.7255 3.27459 12.7255H2.76479C2.62401 12.7255 2.50989 12.6114 2.50989 12.4706V10.9412C2.50989 10.8004 2.62401 10.6863 2.76479 10.6863ZM6.04983 9.15695H18.3622C18.6241 9.15695 18.8434 9.35541 18.8694 9.61602L19.2212 13.1339C19.2773 13.6942 18.8685 14.1939 18.3081 14.2499C18.2744 14.2533 18.2406 14.255 18.2067 14.255H6.19016C5.62705 14.255 5.17055 13.7985 5.17055 13.2354C5.17055 13.2 5.17239 13.1647 5.17606 13.1296L5.54278 9.61386C5.56986 9.35419 5.78875 9.15695 6.04983 9.15695Z" fill="#1A0440"/>
<path fill-rule="evenodd" clip-rule="evenodd" d="M12 41C13.6569 41 15 40.3284 15 39.5C15 38.6716 13.6569 38 12 38C10.3431 38 9 38.6716 9 39.5C9 40.3284 10.3431 41 12 41Z" fill="black"/>
<path d="M12 23.5V39.5" stroke="#111111" stroke-width="1.5"/>
<defs>
<filter id="filter0_d" x="0" y="0" width="24.3922" height="30" filterUnits="userSpaceOnUse" color-interpolation-filters="sRGB">
<feFlood flood-opacity="0" result="BackgroundImageFix"/>
<feColorMatrix in="SourceAlpha" type="matrix" values="0 0 0 0 0 0 0 0 0 0 0 0 0 0 0 0 0 0 127 0"/>
<feOffset dy="1"/>
<feGaussianBlur stdDeviation="1"/>
<feColorMatrix type="matrix" values="0 0 0 0 0 0 0 0 0 0 0 0 0 0 0 0 0 0 0.5 0"/>
<feBlend mode="normal" in2="BackgroundImageFix" result="effect1_dropShadow"/>
<feBlend mode="normal" in="SourceGraphic" in2="effect1_dropShadow" result="shape"/>
</filter>
</defs>
</svg>
