<svg width="22" height="22" viewBox="0 0 22 22" fill="none" xmlns="http://www.w3.org/2000/svg">
<path fill-rule="evenodd" clip-rule="evenodd" d="M11 22C17.0751 22 22 17.0751 22 11C22 4.92487 17.0751 0 11 0C4.92487 0 0 4.92487 0 11C0 17.0751 4.92487 22 11 22Z" fill="url(#paint0_linear)"/>
<path fill-rule="evenodd" clip-rule="evenodd" d="M11 20C15.9706 20 20 15.9706 20 11C20 6.02944 15.9706 2 11 2C6.02944 2 2 6.02944 2 11C2 15.9706 6.02944 20 11 20Z" fill="white"/>
<path d="M7.62857 17C7.2816 17 7 16.7184 7 16.3714V6.62857C7 6.2816 7.2816 6 7.62857 6C7.97554 6 8.25714 6.2816 8.25714 6.62857V16.3714C8.25714 16.7184 7.97554 17 7.62857 17Z" fill="#8899A6"/>
<path d="M7.62857 6C7.28129 6 7 6.28129 7 6.62857V16.3714C7 16.4582 7.0704 16.5286 7.15714 16.5286C7.24389 16.5286 7.31429 16.4582 7.31429 16.3714V7.07297C7.31429 6.82751 7.51323 6.62857 7.75869 6.62857H8.25714C8.25714 6.28129 7.97586 6 7.62857 6Z" fill="#AAB8C2"/>
<path d="M7.62857 17C7.2816 17 7 16.7184 7 16.3714V6.62857C7 6.2816 7.2816 6 7.62857 6C7.97554 6 8.25714 6.2816 8.25714 6.62857V16.3714C8.25714 16.7184 7.97554 17 7.62857 17Z" fill="#8899A6"/>
<path d="M7.62857 6C7.28129 6 7 6.28129 7 6.62857V16.3714C7 16.4582 7.0704 16.5286 7.15714 16.5286C7.24389 16.5286 7.31429 16.4582 7.31429 16.3714V7.07297C7.31429 6.82751 7.51323 6.62857 7.75869 6.62857H8.25714C8.25714 6.28129 7.97586 6 7.62857 6Z" fill="#AAB8C2"/>
<path d="M16.2388 6.65432C15.7158 6.42835 15.1586 6.31615 14.5429 6.30609L14.1107 6.42552L12.6572 6.62855L12.3429 6.58832C12.2684 6.60435 12.1933 6.61943 12.1194 6.63546C11.4377 6.78286 10.79 6.91643 10.1429 6.94409L9.82859 7.25712L7.94287 6.94283V12.9143H9.82859L10.1429 13.5428H10.1671C10.8723 13.5127 11.5726 13.3681 12.2517 13.2216L12.3429 13.2025L12.5459 12.9997L14.255 12.7772L14.5429 12.9061C15.0709 12.9161 15.5464 13.0114 15.9898 13.2028C16.087 13.2446 16.1988 13.2351 16.2868 13.177C16.3755 13.1185 16.4286 13.0202 16.4286 12.9143V6.94283C16.4286 6.81743 16.3541 6.70398 16.2388 6.65432Z" fill="#31373D"/>
<path d="M10.1429 6.94409C10.0678 6.94723 9.99264 6.95509 9.91753 6.95509C9.35276 6.95509 8.85021 6.85672 8.38161 6.65432C8.28481 6.61189 8.17261 6.62194 8.08461 6.6804C7.99599 6.73823 7.94287 6.83723 7.94287 6.94283V8.82854C7.94287 8.82854 8.9775 9.14283 10.1429 9.14283V6.94409ZM12.3429 8.82854C12.3429 8.82854 11.1643 9.14283 10.1429 9.14283V11.3428C11.0857 11.3428 12.3429 11.0285 12.3429 11.0285V8.82854ZM14.5429 8.51426V6.30609C14.5127 6.30546 14.4844 6.302 14.4539 6.302C13.7414 6.302 13.033 6.44092 12.3429 6.58832V8.82854C12.3429 8.82854 13.0239 8.51426 14.5429 8.51426ZM8.1327 13.2028C8.60413 13.4064 9.10384 13.5149 9.64756 13.5428H10.1429V11.3428C8.83324 11.3428 7.94287 11.0285 7.94287 11.0285V12.9143C7.94287 13.0397 8.01736 13.1531 8.1327 13.2028ZM12.3429 11.0285V13.2021C13.0698 13.0453 13.7606 12.902 14.4539 12.902C14.4844 12.902 14.5127 12.9055 14.5429 12.9061V10.7143C13.1286 10.7143 12.3429 11.0285 12.3429 11.0285ZM14.5429 10.7143C15.3839 10.7143 16.0577 10.8903 16.4286 11.0141V8.79963C16.0681 8.67989 15.4131 8.51426 14.5429 8.51426V10.7143Z" fill="#E1E8ED"/>
<defs>
<linearGradient id="paint0_linear" x1="0" y1="0" x2="0" y2="22" gradientUnits="userSpaceOnUse">
<stop stop-color="#EF5959"/>
<stop offset="1" stop-color="#DB2D43"/>
</linearGradient>
</defs>
</svg>

