<svg width="14" height="18" viewBox="0 0 14 18" fill="none" xmlns="http://www.w3.org/2000/svg">
<path fill-rule="evenodd" clip-rule="evenodd" d="M1.84174 0.692337H12.2671C12.9868 0.692337 13.5703 1.27578 13.5703 1.9955V16.0046C13.5703 16.7243 12.9868 17.3077 12.2671 17.3077H11.9413C11.2216 17.3077 10.6381 16.7243 10.6381 16.0046V15.0272H3.4707V16.0046C3.4707 16.7243 2.88725 17.3077 2.16753 17.3077H1.84174C1.12202 17.3077 0.538574 16.7243 0.538574 16.0046V1.9955C0.538574 1.27578 1.12202 0.692337 1.84174 0.692337Z" fill="white"/>
<path fill-rule="evenodd" clip-rule="evenodd" d="M1.51583 13.7239H12.5928C12.7727 13.7239 12.9185 13.8698 12.9185 14.0497V16.0044C12.9185 16.3643 12.6268 16.656 12.267 16.656H11.9412C11.5813 16.656 11.2896 16.3643 11.2896 16.0044V14.3755H2.819V16.0044C2.819 16.3643 2.52727 16.656 2.16741 16.656H1.84162C1.48176 16.656 1.19004 16.3643 1.19004 16.0044V14.0497C1.19004 13.8698 1.3359 13.7239 1.51583 13.7239ZM2.12932 10.7922H11.9794C12.1438 10.7922 12.2823 10.9146 12.3027 11.0776L12.5471 13.0324C12.5694 13.2109 12.4427 13.3737 12.2642 13.396C12.2508 13.3977 12.2373 13.3986 12.2238 13.3986H1.88497C1.70504 13.3986 1.55918 13.2527 1.55918 13.0728C1.55918 13.0593 1.56002 13.0458 1.5617 13.0324L1.80604 11.0776C1.82642 10.9146 1.96501 10.7922 2.12932 10.7922ZM2.49341 11.4436C2.31348 11.4436 2.16762 11.5894 2.16762 11.7693V12.0951C2.16762 12.2751 2.31348 12.4209 2.49341 12.4209H3.47078C3.65071 12.4209 3.79658 12.2751 3.79658 12.0951V11.7693C3.79658 11.5894 3.65071 11.4436 3.47078 11.4436H2.49341ZM10.6382 11.4436C10.4582 11.4436 10.3124 11.5894 10.3124 11.7693V12.0951C10.3124 12.2751 10.4582 12.4209 10.6382 12.4209H11.6156C11.7955 12.4209 11.9413 12.2751 11.9413 12.0951V11.7693C11.9413 11.5894 11.7955 11.4436 11.6156 11.4436H10.6382ZM5.75145 11.4436C5.66149 11.4436 5.58855 11.5165 5.58855 11.6065V11.9322C5.58855 12.0222 5.66149 12.0951 5.75145 12.0951C5.84142 12.0951 5.91435 12.0222 5.91435 11.9322V11.6065C5.91435 11.5165 5.84142 11.4436 5.75145 11.4436ZM6.40301 11.4436C6.31305 11.4436 6.24012 11.5165 6.24012 11.6065V12.5838C6.24012 12.6738 6.31305 12.7467 6.40301 12.7467C6.49298 12.7467 6.56591 12.6738 6.56591 12.5838V11.6065C6.56591 11.5165 6.49298 11.4436 6.40301 11.4436ZM7.05434 11.4436C6.96438 11.4436 6.89145 11.5165 6.89145 11.6065V12.5838C6.89145 12.6738 6.96438 12.7467 7.05434 12.7467C7.14431 12.7467 7.21724 12.6738 7.21724 12.5838V11.6065C7.21724 11.5165 7.14431 11.4436 7.05434 11.4436ZM7.7059 11.4436C7.61594 11.4436 7.54301 11.5165 7.54301 11.6065V12.5838C7.54301 12.6738 7.61594 12.7467 7.7059 12.7467C7.79587 12.7467 7.8688 12.6738 7.8688 12.5838V11.6065C7.8688 11.5165 7.79587 11.4436 7.7059 11.4436ZM8.3577 11.4436C8.26774 11.4436 8.1948 11.5165 8.1948 11.6065V11.9322C8.1948 12.0222 8.26774 12.0951 8.3577 12.0951C8.44767 12.0951 8.5206 12.0222 8.5206 11.9322V11.6065C8.5206 11.5165 8.44767 11.4436 8.3577 11.4436ZM12.2262 10.1401L11.6867 5.82402C11.646 5.49795 11.3688 5.25325 11.0402 5.25325H3.06841C2.7398 5.25325 2.46262 5.49795 2.42186 5.82402L1.88235 10.1401H1.51583C1.3359 10.1401 1.19004 9.99427 1.19004 9.81434V8.51117H1.51583C1.69576 8.51117 1.84162 8.36531 1.84162 8.18538V6.88221C1.84162 6.70228 1.69576 6.55642 1.51583 6.55642H1.19004V1.99533C1.19004 1.63547 1.48176 1.34375 1.84162 1.34375H12.267C12.6268 1.34375 12.9185 1.63547 12.9185 1.99533V6.55642H12.5928C12.4128 6.55642 12.267 6.70228 12.267 6.88221V8.18538C12.267 8.36531 12.4128 8.51117 12.5928 8.51117H12.9185V9.81434C12.9185 9.99427 12.7727 10.1401 12.5928 10.1401H12.2262ZM3.47051 2.64699V4.60174H3.7963V2.64699H3.47051ZM6.89145 2.64699V4.60174H7.21724V2.64699H6.89145ZM10.3124 2.64699V4.60174H10.6382V2.64699H10.3124ZM1.84161 1.66965C1.66168 1.66965 1.51582 1.81551 1.51582 1.99544H12.5927C12.5927 1.81551 12.4469 1.66965 12.267 1.66965H1.84161ZM12.7555 6.88238H13.0813C13.1713 6.88238 13.2442 6.95531 13.2442 7.04528V8.02265C13.2442 8.11262 13.1713 8.18555 13.0813 8.18555H12.7555C12.6655 8.18555 12.5926 8.11262 12.5926 8.02265V7.04528C12.5926 6.95531 12.6655 6.88238 12.7555 6.88238ZM1.02715 6.88238H1.35295C1.44291 6.88238 1.51584 6.95531 1.51584 7.04528V8.02265C1.51584 8.11262 1.44291 8.18555 1.35295 8.18555H1.02715C0.937189 8.18555 0.864258 8.11262 0.864258 8.02265V7.04528C0.864258 6.95531 0.937189 6.88238 1.02715 6.88238ZM3.12655 5.90492H10.9948C11.1622 5.90492 11.3023 6.03175 11.319 6.1983L11.5438 8.44642C11.5796 8.8045 11.3183 9.1238 10.9603 9.15961C10.9387 9.16176 10.9171 9.16284 10.8954 9.16284H3.21623C2.85637 9.16284 2.56465 8.87112 2.56465 8.51126C2.56465 8.48868 2.56582 8.46612 2.56816 8.44366L2.80252 6.19691C2.81983 6.03097 2.95971 5.90492 3.12655 5.90492Z" fill="#666D80"/>
</svg>
