<svg xmlns="http://www.w3.org/2000/svg" width="22" height="18" viewBox="0 0 22 18">
    <g fill="none" fill-rule="evenodd">
        <path d="M-1-2h24v24H-1z"/>
        <g fill="#FF4E4E" fill-rule="nonzero">
            <path d="M21.322 15.149L12.462.909A1.965 1.965 0 0 0 10.8 0c-.676 0-1.313.348-1.662.91L.278 15.148a1.833 1.833 0 0 0-.028 1.895c.344.59.991.956 1.69.956h17.72c.699 0 1.346-.366 1.69-.956a1.833 1.833 0 0 0-.028-1.895zm-1.197 1.225a.538.538 0 0 1-.465.263H1.94c-.192 0-.37-.1-.465-.263a.505.505 0 0 1 .008-.522l8.86-14.239a.54.54 0 0 1 .914 0l8.86 14.24c.1.159.103.359.008.521z"/>
            <path d="M10.806 5.4c-.509 0-.906.27-.906.748 0 1.458.174 3.554.174 5.013 0 .38.335.539.732.539.298 0 .72-.16.72-.54 0-1.458.174-3.554.174-5.012 0-.478-.41-.748-.894-.748zM10.806 12.6a.896.896 0 0 0-.906.9c0 .48.388.9.906.9.482 0 .894-.42.894-.9 0-.49-.412-.9-.894-.9z"/>
        </g>
    </g>
</svg>
